<svg width="30" height="30" viewBox="0 0 30 30" fill="none" xmlns="http://www.w3.org/2000/svg">
<path d="M10.3125 16.875L11.6344 18.1969L14.0625 15.7781V27.1875H15.9375V15.7781L18.3656 18.1969L19.6875 16.875L15 12.1875L10.3125 16.875Z" fill="#FCFEFB"/>
<path d="M22.0312 20.625H21.5625V18.75H22.0312C23.1501 18.7948 24.241 18.3932 25.0638 17.6337C25.8866 16.8742 26.374 15.8189 26.4187 14.7C26.4635 13.5811 26.0619 12.4903 25.3024 11.6675C24.5429 10.8447 23.4876 10.3573 22.3687 10.3125H21.5625L21.4687 9.54378C21.2607 7.96545 20.4861 6.51653 19.2891 5.46695C18.0922 4.41736 16.5545 3.83866 14.9625 3.83866C13.3705 3.83866 11.8328 4.41736 10.6358 5.46695C9.43886 6.51653 8.66423 7.96545 8.45624 9.54378L8.43749 10.3125H7.63124C6.51236 10.3573 5.45708 10.8447 4.69756 11.6675C3.93804 12.4903 3.53648 13.5811 3.58124 14.7C3.62599 15.8189 4.11339 16.8742 4.93621 17.6337C5.75902 18.3932 6.84986 18.7948 7.96874 18.75H8.43749V20.625H7.96874C6.46537 20.6155 5.01858 20.0506 3.90654 19.0389C2.79449 18.0271 2.09569 16.6401 1.94449 15.1443C1.79328 13.6485 2.20034 12.1496 3.08741 10.9358C3.97448 9.72202 5.27894 8.87898 6.74999 8.56878C7.15472 6.68114 8.19452 4.98938 9.69591 3.77578C11.1973 2.56218 13.0694 1.90015 15 1.90015C16.9305 1.90015 18.8027 2.56218 20.3041 3.77578C21.8055 4.98938 22.8453 6.68114 23.25 8.56878C24.721 8.87898 26.0255 9.72202 26.9126 10.9358C27.7996 12.1496 28.2067 13.6485 28.0555 15.1443C27.9043 16.6401 27.2055 18.0271 26.0934 19.0389C24.9814 20.0506 23.5346 20.6155 22.0312 20.625Z" fill="#FCFEFB"/>
</svg>
