<svg width="192" height="40" viewBox="0 0 192 40" fill="none" xmlns="http://www.w3.org/2000/svg">
<path d="M51.436 1.38796H56.7755V23.285H57.0204L60.9883 19.2191L68.0914 12.361H74.4107L64.1725 22.3052L75.5374 37.6381H69.1201L60.3025 25.3424L56.7755 28.6245V37.6381H51.436V1.38796Z" fill="#242424"/>
<path d="M80.2209 33.3272H86.9321V16.6718H80.2209V12.361H92.2717V19.0721H92.5656C92.7942 18.1904 93.1208 17.3413 93.5453 16.5248C93.9699 15.7084 94.5087 15.0062 95.1619 14.4184C95.815 13.7979 96.6151 13.308 97.5622 12.9488C98.5093 12.5569 99.6196 12.361 100.893 12.361H103.93V17.4556H98.9338C96.9744 17.4556 95.3741 18.0434 94.1331 19.2191C92.8922 20.3621 92.2717 21.9134 92.2717 23.8728V33.3272H101.432V37.6381H80.2209V33.3272Z" fill="#242424"/>
<path d="M120.567 38.2259C118.705 38.2259 117.023 37.9157 115.521 37.2952C114.052 36.6747 112.794 35.7929 111.749 34.6499C110.737 33.5069 109.953 32.1189 109.398 30.486C108.843 28.8531 108.565 27.0243 108.565 24.9995C108.565 22.9747 108.843 21.1459 109.398 19.513C109.953 17.8801 110.737 16.4922 111.749 15.3491C112.794 14.2061 114.052 13.3244 115.521 12.7039C117.023 12.0834 118.705 11.7731 120.567 11.7731C122.428 11.7731 124.094 12.0834 125.563 12.7039C127.066 13.3244 128.323 14.2061 129.335 15.3491C130.38 16.4922 131.181 17.8801 131.736 19.513C132.291 21.1459 132.569 22.9747 132.569 24.9995C132.569 27.0243 132.291 28.8531 131.736 30.486C131.181 32.1189 130.38 33.5069 129.335 34.6499C128.323 35.7929 127.066 36.6747 125.563 37.2952C124.094 37.9157 122.428 38.2259 120.567 38.2259ZM120.567 34.013C122.526 34.013 124.077 33.4252 125.221 32.2495C126.396 31.0412 126.984 29.2613 126.984 26.91V23.089C126.984 20.7377 126.396 18.9742 125.221 17.7985C124.077 16.5901 122.526 15.986 120.567 15.986C118.607 15.986 117.04 16.5901 115.864 17.7985C114.721 18.9742 114.15 20.7377 114.15 23.089V26.91C114.15 29.2613 114.721 31.0412 115.864 32.2495C117.04 33.4252 118.607 34.013 120.567 34.013Z" fill="#242424"/>
<path d="M137.399 37.6381V12.361H141.955V15.6431H142.2C142.592 14.5654 143.147 13.6509 143.865 12.8998C144.616 12.1487 145.678 11.7731 147.049 11.7731C148.388 11.7731 149.417 12.1487 150.136 12.8998C150.887 13.6183 151.36 14.6143 151.556 15.888H151.752C152.209 14.745 152.846 13.7816 153.663 12.9978C154.479 12.1813 155.655 11.7731 157.19 11.7731C159.149 11.7731 160.504 12.4589 161.256 13.8306C162.039 15.2022 162.431 17.2106 162.431 19.8559V37.6381H157.875V20.5417C157.875 18.7782 157.663 17.5699 157.239 16.9167C156.814 16.2309 156.128 15.888 155.181 15.888C154.332 15.888 153.614 16.1819 153.026 16.7698C152.471 17.3249 152.193 18.174 152.193 19.3171V37.6381H147.637V20.5417C147.637 18.7782 147.425 17.5699 147 16.9167C146.609 16.2309 145.939 15.888 144.992 15.888C144.11 15.888 143.375 16.1819 142.788 16.7698C142.232 17.3249 141.955 18.174 141.955 19.3171V37.6381H137.399Z" fill="#242424"/>
<path d="M188.718 37.6381C187.183 37.6381 186.024 37.2462 185.24 36.4624C184.489 35.6786 184.032 34.6499 183.868 33.3762H183.623C183.133 34.9111 182.235 36.1031 180.929 36.9522C179.655 37.8013 178.022 38.2259 176.03 38.2259C173.45 38.2259 171.393 37.5564 169.858 36.2174C168.323 34.8458 167.556 32.968 167.556 30.584C167.556 28.1347 168.454 26.2732 170.25 24.9995C172.079 23.6932 174.871 23.04 178.627 23.04H183.476V21.0806C183.476 17.6515 181.664 15.937 178.039 15.937C176.406 15.937 175.083 16.2636 174.071 16.9167C173.059 17.5372 172.209 18.37 171.524 19.415L168.339 16.8187C169.058 15.4471 170.266 14.2714 171.964 13.2917C173.663 12.2793 175.851 11.7731 178.529 11.7731C181.729 11.7731 184.244 12.5406 186.073 14.0755C187.901 15.6104 188.816 17.8311 188.816 20.7377V33.4252H192V37.6381H188.718ZM177.549 34.307C179.28 34.307 180.7 33.9151 181.811 33.1313C182.921 32.3475 183.476 31.3351 183.476 30.0941V26.4201H178.725C174.871 26.4201 172.944 27.5795 172.944 29.8982V30.8779C172.944 32.0209 173.352 32.8864 174.169 33.4742C174.985 34.0294 176.112 34.307 177.549 34.307Z" fill="#242424"/>
<path d="M32.6577 27.7591C32.6577 34.5227 27.1747 40.0057 20.4111 40.0057C13.6474 40.0057 8.16444 34.5227 8.16444 27.7591C8.16444 20.9954 13.6474 15.5124 20.4111 15.5124C27.1747 15.5124 32.6577 20.9954 32.6577 27.7591Z" fill="#242424"/>
<path d="M16.3289 8.16444C16.3289 12.6735 12.6735 16.3289 8.16444 16.3289C3.65534 16.3289 0 12.6735 0 8.16444C0 3.65534 3.65534 0 8.16444 0C12.6735 0 16.3289 3.65534 16.3289 8.16444Z" fill="#242424"/>
<path d="M34.2906 11.4302C34.2906 13.6848 32.463 15.5124 30.2084 15.5124C27.9539 15.5124 26.1262 13.6848 26.1262 11.4302C26.1262 9.17566 27.9539 7.34799 30.2084 7.34799C32.463 7.34799 34.2906 9.17566 34.2906 11.4302Z" fill="#242424"/>
</svg>
