<svg width="30" height="30" viewBox="0 0 30 30" fill="none" xmlns="http://www.w3.org/2000/svg">
<path d="M27.4219 6.3376C26.8993 5.8132 26.2784 5.39712 25.5946 5.11321C24.9109 4.82931 24.1778 4.68317 23.4375 4.68317C22.6972 4.68317 21.9641 4.82931 21.2804 5.11321C20.5967 5.39712 19.9757 5.8132 19.4531 6.3376L20.7844 7.66885C21.1334 7.31982 21.5478 7.04296 22.0038 6.85407C22.4598 6.66517 22.9486 6.56795 23.4422 6.56795C23.9358 6.56795 24.4246 6.66517 24.8806 6.85407C25.3366 7.04296 25.751 7.31982 26.1 7.66885C26.449 8.01788 26.7259 8.43224 26.9148 8.88827C27.1037 9.34429 27.2009 9.83306 27.2009 10.3267C27.2009 10.8203 27.1037 11.309 26.9148 11.7651C26.7259 12.2211 26.449 12.6354 26.1 12.9845L18.6 20.4845C17.8964 21.1894 16.9415 21.5859 15.9455 21.5868C14.9495 21.5876 13.994 21.1928 13.2891 20.4892C12.5842 19.7855 12.1877 18.8307 12.1868 17.8347C12.1859 16.8387 12.5807 15.8831 13.2844 15.1782L14.6063 13.847L13.2844 12.5157L11.9531 13.847C11.4287 14.3696 11.0127 14.9905 10.7288 15.6742C10.4448 16.358 10.2987 17.091 10.2987 17.8314C10.2987 18.5717 10.4448 19.3047 10.7288 19.9885C11.0127 20.6722 11.4287 21.2931 11.9531 21.8157C13.0139 22.8629 14.447 23.4462 15.9375 23.4376C16.6807 23.4407 17.4171 23.2964 18.1042 23.0132C18.7913 22.73 19.4155 22.3134 19.9406 21.7876L27.4406 14.2876C28.4915 13.2304 29.0798 11.7994 29.0763 10.3087C29.0728 8.81809 28.4778 7.38981 27.4219 6.3376Z" fill="#585858"/>
<path d="M3.92813 23.2688C3.57806 22.9204 3.30027 22.5062 3.11072 22.0501C2.92118 21.594 2.8236 21.1049 2.8236 20.611C2.8236 20.1171 2.92118 19.628 3.11072 19.1719C3.30027 18.7158 3.57806 18.3016 3.92813 17.9532L11.4281 10.4532C11.7766 10.1031 12.1907 9.82535 12.6468 9.6358C13.103 9.44625 13.592 9.34868 14.0859 9.34868C14.5799 9.34868 15.0689 9.44625 15.525 9.6358C15.9811 9.82535 16.3953 10.1031 16.7438 10.4532C17.0916 10.8044 17.3654 11.2218 17.549 11.6808C17.7326 12.1397 17.8222 12.6309 17.8125 13.1251C17.8154 13.6208 17.7199 14.1122 17.5316 14.5709C17.3433 15.0295 17.066 15.4462 16.7156 15.797L14.7281 17.8126L16.0594 19.1438L18.0469 17.1563C19.1048 16.0984 19.6992 14.6635 19.6992 13.1673C19.6992 11.6711 19.1048 10.2362 18.0469 9.1782C16.9889 8.12024 15.554 7.52588 14.0578 7.52588C12.5616 7.52588 11.1267 8.12024 10.0688 9.1782L2.56875 16.6782C2.04294 17.201 1.62567 17.8225 1.34093 18.5071C1.05619 19.1917 0.909607 19.9258 0.909607 20.6673C0.909607 21.4087 1.05619 22.1428 1.34093 22.8274C1.62567 23.512 2.04294 24.1336 2.56875 24.6563C3.6364 25.6955 5.07272 26.2687 6.5625 26.2501C8.06541 26.2515 9.50786 25.6584 10.575 24.6001L9.24375 23.2688C8.89531 23.6189 8.48114 23.8967 8.02503 24.0862C7.56892 24.2758 7.07986 24.3734 6.58594 24.3734C6.09201 24.3734 5.60295 24.2758 5.14685 24.0862C4.69074 23.8967 4.27657 23.6189 3.92813 23.2688Z" fill="#585858"/>
</svg>
